<mxfile host="app.diagrams.net" modified="2024-01-25T19:05:44.368Z" agent="Mozilla/5.0 (Windows NT 10.0; Win64; x64) AppleWebKit/537.36 (KHTML, like Gecko) Chrome/120.0.0.0 Safari/537.36 OPR/106.0.0.0" etag="mlaQQcINGYr02UjinOVu" version="23.0.1" type="google">
  <diagram name="Page-1" id="c4acf3e9-155e-7222-9cf6-157b1a14988f">
    <mxGraphModel grid="1" page="1" gridSize="10" guides="1" tooltips="1" connect="1" arrows="1" fold="1" pageScale="1" pageWidth="850" pageHeight="1100" background="none" math="0" shadow="0">
      <root>
        <mxCell id="0" />
        <mxCell id="1" parent="0" />
        <mxCell id="BtlaXIZbuH9xNfWMviYG-48" value="" style="rounded=0;whiteSpace=wrap;html=1;" vertex="1" parent="1">
          <mxGeometry x="170" y="410" width="470" height="590" as="geometry" />
        </mxCell>
        <mxCell id="BtlaXIZbuH9xNfWMviYG-34" style="edgeStyle=orthogonalEdgeStyle;rounded=0;orthogonalLoop=1;jettySize=auto;html=1;exitX=0;exitY=0.75;exitDx=0;exitDy=0;entryX=0.75;entryY=0;entryDx=0;entryDy=0;" edge="1" parent="1" source="BtlaXIZbuH9xNfWMviYG-27" target="BtlaXIZbuH9xNfWMviYG-32">
          <mxGeometry relative="1" as="geometry" />
        </mxCell>
        <mxCell id="BtlaXIZbuH9xNfWMviYG-27" value=":CanteenStaff" style="whiteSpace=wrap;html=1;aspect=fixed;" vertex="1" parent="1">
          <mxGeometry x="420" y="458" width="80" height="80" as="geometry" />
        </mxCell>
        <mxCell id="BtlaXIZbuH9xNfWMviYG-28" value=":NotificationSystem" style="whiteSpace=wrap;html=1;aspect=fixed;" vertex="1" parent="1">
          <mxGeometry x="480" y="640" width="110" height="110" as="geometry" />
        </mxCell>
        <mxCell id="BtlaXIZbuH9xNfWMviYG-37" style="edgeStyle=orthogonalEdgeStyle;rounded=0;orthogonalLoop=1;jettySize=auto;html=1;exitX=0.25;exitY=1;exitDx=0;exitDy=0;entryX=0.25;entryY=0;entryDx=0;entryDy=0;" edge="1" parent="1" source="BtlaXIZbuH9xNfWMviYG-29" target="BtlaXIZbuH9xNfWMviYG-30">
          <mxGeometry relative="1" as="geometry" />
        </mxCell>
        <mxCell id="BtlaXIZbuH9xNfWMviYG-29" value=":DataManager" style="whiteSpace=wrap;html=1;aspect=fixed;" vertex="1" parent="1">
          <mxGeometry x="200" y="720" width="80" height="80" as="geometry" />
        </mxCell>
        <mxCell id="BtlaXIZbuH9xNfWMviYG-30" value=":DB" style="whiteSpace=wrap;html=1;aspect=fixed;" vertex="1" parent="1">
          <mxGeometry x="200" y="880" width="80" height="80" as="geometry" />
        </mxCell>
        <mxCell id="BtlaXIZbuH9xNfWMviYG-31" value=":CustomerApp" style="whiteSpace=wrap;html=1;aspect=fixed;" vertex="1" parent="1">
          <mxGeometry x="480" y="870" width="80" height="80" as="geometry" />
        </mxCell>
        <mxCell id="BtlaXIZbuH9xNfWMviYG-35" style="edgeStyle=orthogonalEdgeStyle;rounded=0;orthogonalLoop=1;jettySize=auto;html=1;exitX=0.25;exitY=1;exitDx=0;exitDy=0;entryX=0.25;entryY=0;entryDx=0;entryDy=0;" edge="1" parent="1" source="BtlaXIZbuH9xNfWMviYG-32" target="BtlaXIZbuH9xNfWMviYG-29">
          <mxGeometry relative="1" as="geometry" />
        </mxCell>
        <mxCell id="BtlaXIZbuH9xNfWMviYG-39" style="edgeStyle=orthogonalEdgeStyle;rounded=0;orthogonalLoop=1;jettySize=auto;html=1;exitX=1;exitY=0.75;exitDx=0;exitDy=0;entryX=0.25;entryY=0;entryDx=0;entryDy=0;" edge="1" parent="1" source="BtlaXIZbuH9xNfWMviYG-32" target="BtlaXIZbuH9xNfWMviYG-28">
          <mxGeometry relative="1" as="geometry" />
        </mxCell>
        <mxCell id="BtlaXIZbuH9xNfWMviYG-32" value=":Menu" style="whiteSpace=wrap;html=1;aspect=fixed;" vertex="1" parent="1">
          <mxGeometry x="200" y="560" width="80" height="80" as="geometry" />
        </mxCell>
        <mxCell id="BtlaXIZbuH9xNfWMviYG-36" style="edgeStyle=orthogonalEdgeStyle;rounded=0;orthogonalLoop=1;jettySize=auto;html=1;exitX=0.75;exitY=0;exitDx=0;exitDy=0;entryX=0.75;entryY=1;entryDx=0;entryDy=0;dashed=1;dashPattern=8 8;" edge="1" parent="1" source="BtlaXIZbuH9xNfWMviYG-29" target="BtlaXIZbuH9xNfWMviYG-32">
          <mxGeometry relative="1" as="geometry">
            <Array as="points">
              <mxPoint x="280" y="720" />
              <mxPoint x="280" y="690" />
              <mxPoint x="260" y="690" />
            </Array>
            <mxPoint x="280" y="720" as="sourcePoint" />
            <mxPoint x="395" y="600" as="targetPoint" />
          </mxGeometry>
        </mxCell>
        <mxCell id="BtlaXIZbuH9xNfWMviYG-43" value="confirmSaved()" style="edgeLabel;html=1;align=center;verticalAlign=middle;resizable=0;points=[];" connectable="0" vertex="1" parent="BtlaXIZbuH9xNfWMviYG-36">
          <mxGeometry x="0.4649" relative="1" as="geometry">
            <mxPoint as="offset" />
          </mxGeometry>
        </mxCell>
        <mxCell id="BtlaXIZbuH9xNfWMviYG-38" style="edgeStyle=orthogonalEdgeStyle;rounded=0;orthogonalLoop=1;jettySize=auto;html=1;exitX=0.75;exitY=0;exitDx=0;exitDy=0;entryX=0.75;entryY=1;entryDx=0;entryDy=0;dashed=1;dashPattern=8 8;" edge="1" parent="1">
          <mxGeometry relative="1" as="geometry">
            <Array as="points">
              <mxPoint x="270.58" y="862" />
              <mxPoint x="270.58" y="862" />
            </Array>
            <mxPoint x="270.58" y="880" as="sourcePoint" />
            <mxPoint x="270.58" y="800" as="targetPoint" />
          </mxGeometry>
        </mxCell>
        <mxCell id="BtlaXIZbuH9xNfWMviYG-45" value="updateStatus()" style="edgeLabel;html=1;align=center;verticalAlign=middle;resizable=0;points=[];" connectable="0" vertex="1" parent="BtlaXIZbuH9xNfWMviYG-38">
          <mxGeometry x="0.0516" relative="1" as="geometry">
            <mxPoint as="offset" />
          </mxGeometry>
        </mxCell>
        <mxCell id="BtlaXIZbuH9xNfWMviYG-40" style="edgeStyle=orthogonalEdgeStyle;rounded=0;orthogonalLoop=1;jettySize=auto;html=1;exitX=0.25;exitY=1;exitDx=0;exitDy=0;entryX=0.344;entryY=0.003;entryDx=0;entryDy=0;entryPerimeter=0;" edge="1" parent="1" source="BtlaXIZbuH9xNfWMviYG-28" target="BtlaXIZbuH9xNfWMviYG-31">
          <mxGeometry relative="1" as="geometry" />
        </mxCell>
        <mxCell id="BtlaXIZbuH9xNfWMviYG-41" value="updateMenuItem(details)" style="text;html=1;align=center;verticalAlign=middle;resizable=0;points=[];autosize=1;strokeColor=none;fillColor=none;" vertex="1" parent="1">
          <mxGeometry x="265" y="490" width="160" height="30" as="geometry" />
        </mxCell>
        <mxCell id="BtlaXIZbuH9xNfWMviYG-42" value="saveItem()" style="text;html=1;align=center;verticalAlign=middle;resizable=0;points=[];autosize=1;strokeColor=none;fillColor=none;rotation=-90;" vertex="1" parent="1">
          <mxGeometry x="170" y="670" width="80" height="30" as="geometry" />
        </mxCell>
        <mxCell id="BtlaXIZbuH9xNfWMviYG-44" value="updateDB()" style="text;html=1;align=center;verticalAlign=middle;resizable=0;points=[];autosize=1;strokeColor=none;fillColor=none;rotation=-90;" vertex="1" parent="1">
          <mxGeometry x="170" y="825" width="80" height="30" as="geometry" />
        </mxCell>
        <mxCell id="BtlaXIZbuH9xNfWMviYG-46" value="triggerUpdateNotif()" style="text;html=1;align=center;verticalAlign=middle;resizable=0;points=[];autosize=1;strokeColor=none;fillColor=none;" vertex="1" parent="1">
          <mxGeometry x="335" y="593" width="130" height="30" as="geometry" />
        </mxCell>
        <mxCell id="BtlaXIZbuH9xNfWMviYG-47" value="displayNotif()" style="text;html=1;align=center;verticalAlign=middle;resizable=0;points=[];autosize=1;strokeColor=none;fillColor=none;rotation=-90;" vertex="1" parent="1">
          <mxGeometry x="455" y="795" width="90" height="30" as="geometry" />
        </mxCell>
        <mxCell id="BtlaXIZbuH9xNfWMviYG-49" value="&lt;font style=&quot;font-size: 18px;&quot;&gt;&lt;b&gt;Updating the menu&lt;/b&gt;&lt;/font&gt;" style="text;html=1;strokeColor=none;fillColor=none;align=center;verticalAlign=middle;whiteSpace=wrap;rounded=0;" vertex="1" parent="1">
          <mxGeometry x="200" y="433" width="180" height="30" as="geometry" />
        </mxCell>
      </root>
    </mxGraphModel>
  </diagram>
</mxfile>
